<svg width="60" height="60" viewBox="0 0 60 60" fill="none" xmlns="http://www.w3.org/2000/svg">
<path fill-rule="evenodd" clip-rule="evenodd" d="M46.2389 0V0.000467062V2.99998V21.0003H48.9911V2.99998H57.2468V26.8722C55.5051 25.0997 53.0805 24.0005 50.3992 24.0005H48.9901V24.0007H13.7598V3.00003H13.7613V5.00679e-05H0V0.000486851V3.00003V24.0007V27.0006V57V59.9999V60.0001H2.75226V59.9999H11.0075V60H13.7598V59.9999H13.7613V57H13.7598V36H46.2389V57V60V60H48.9911V60H57.2468V60H59.9991V60H60.0002V57H59.9991V33.6004H59.9991C59.9991 33.5896 59.9991 33.5788 59.9991 33.568V2.99998H60.0002V0H46.2389ZM57.2468 33.6004H56.9991C56.9991 29.9554 54.0442 27.0005 50.3992 27.0005H48.9902V27.0006H2.75226V57H11.0075V36V33.0002V33H48.9887V33.0002H48.9911V57H57.2468V33.6004ZM2.75226 24.0007H11.0075V3.00003H2.75226V24.0007Z" fill="black"/>
</svg>
